# Blender v3.1.2 OBJ File: ''
# www.blender.org
mtllib multipleCubeColor2.mtl
o Würfel_Würfel.002
v -1.322079 -0.761755 0.831079
v -1.322079 1.238245 0.831079
v -1.322079 -0.761755 -1.168921
v -1.322079 1.238245 -1.168921
v 0.677921 -0.761755 0.831079
v 0.677921 1.238245 0.831079
v 0.677921 -0.761755 -1.168921
v 0.677921 1.238245 -1.168921
vt 0.625000 0.000000
vt 0.375000 0.250000
vt 0.375000 0.000000
vt 0.625000 0.250000
vt 0.375000 0.500000
vt 0.625000 0.500000
vt 0.375000 0.750000
vt 0.125000 0.750000
vt 0.125000 0.500000
vt 0.625000 0.750000
vt 0.375000 1.000000
vt 0.875000 0.500000
vt 0.625000 1.000000
vt 0.875000 0.750000
vn -1.0000 0.0000 0.0000
vn 0.0000 0.0000 -1.0000
vn 1.0000 0.0000 0.0000
vn 0.0000 -1.0000 0.0000
vn 0.0000 0.0000 1.0000
vn 0.0000 1.0000 0.0000
usemtl Material
s off
f 2/1/1 3/2/1 1/3/1
f 4/4/2 7/5/2 3/2/2
f 8/6/3 5/7/3 7/5/3
f 7/5/4 1/8/4 3/9/4
f 2/1/1 4/4/1 3/2/1
f 4/4/2 8/6/2 7/5/2
f 8/6/3 6/10/3 5/7/3
f 7/5/4 5/7/4 1/8/4
usemtl Material.009
f 6/10/5 1/11/5 5/7/5
f 4/12/6 6/10/6 8/6/6
f 6/10/5 2/13/5 1/11/5
f 4/12/6 2/14/6 6/10/6
