{
  "accessors": [
    {
      "bufferView": 2,
      "componentType": 5126,
      "count": 7988,
      "max": [
        0.4040539860725403,
        0.4040539860725403,
        0.9473410248756409
      ],
      "min": [
        -0.4040539860725403,
        -0.4040539860725403,
        0.004910999909043312
      ],
      "type": "VEC3"
    },
    {
      "bufferView": 2,
      "byteOffset": 95856,
      "componentType": 5126,
      "count": 7988,
      "max": [
        0.999998927116394,
        0.999998927116394,
        1.0
      ],
      "min": [
        -0.999998927116394,
        -0.999998927116394,
        -1.0
      ],
      "type": "VEC3"
    },
    {
      "bufferView": 3,
      "componentType": 5126,
      "count": 7988,
      "max": [
        0.9999796152114868,
        0.9999963641166687,
        0.999963104724884,
        1.0
      ],
      "min": [
        -0.9999796748161316,
        -0.9999967217445374,
        -0.99993896484375,
        -1.0
      ],
      "type": "VEC4"
    },
    {
      "bufferView": 1,
      "componentType": 5126,
      "count": 7988,
      "max": [
        0.9965569972991943,
        0.8987249732017517
      ],
      "min": [
        0.00344299990683794,
        0.00344299990683794
      ],
      "type": "VEC2"
    },
    {
      "bufferView": 0,
      "componentType": 5125,
      "count": 42768,
      "type": "SCALAR"
    }
  ],
  "asset": {
    "extras": {
      "author": "emelyarules (https://sketchfab.com/emelyarules)",
      "license": "CC-BY-4.0 (http://creativecommons.org/licenses/by/4.0/)",
      "source": "https://sketchfab.com/3d-models/kings-cup-4f5a5024e54a454089818a8a4c0be951",
      "title": "king's cup"
    },
    "generator": "Sketchfab-12.63.0",
    "version": "2.0"
  },
  "bufferViews": [
    {
      "buffer": 0,
      "byteLength": 171072,
      "name": "floatBufferViews",
      "target": 34963
    },
    {
      "buffer": 0,
      "byteLength": 63904,
      "byteOffset": 171072,
      "byteStride": 8,
      "name": "floatBufferViews",
      "target": 34962
    },
    {
      "buffer": 0,
      "byteLength": 191712,
      "byteOffset": 234976,
      "byteStride": 12,
      "name": "floatBufferViews",
      "target": 34962
    },
    {
      "buffer": 0,
      "byteLength": 127808,
      "byteOffset": 426688,
      "byteStride": 16,
      "name": "floatBufferViews",
      "target": 34962
    }
  ],
  "buffers": [
    {
      "byteLength": 554496,
      "uri": "scene.bin"
    }
  ],
  "images": [
    {
      "uri": "textures/map_CupGold_01_baseColor.png"
    },
    {
      "uri": "textures/map_CupGold_01_metallicRoughness.png"
    },
    {
      "uri": "textures/map_CupGold_01_normal.png"
    }
  ],
  "materials": [
    {
      "doubleSided": true,
      "name": "map_CupGold_01",
      "normalTexture": {
        "index": 2
      },
      "occlusionTexture": {
        "index": 1
      },
      "pbrMetallicRoughness": {
        "baseColorTexture": {
          "index": 0
        },
        "metallicRoughnessTexture": {
          "index": 1
        }
      }
    }
  ],
  "meshes": [
    {
      "name": "Object_0",
      "primitives": [
        {
          "attributes": {
            "NORMAL": 1,
            "POSITION": 0,
            "TANGENT": 2,
            "TEXCOORD_0": 3
          },
          "indices": 4,
          "material": 0,
          "mode": 4
        }
      ]
    }
  ],
  "nodes": [
    {
      "children": [
        1
      ],
      "matrix": [
        1.0,
        0.0,
        0.0,
        0.0,
        0.0,
        2.220446049250313e-16,
        -1.0,
        0.0,
        0.0,
        1.0,
        2.220446049250313e-16,
        0.0,
        0.0,
        0.0,
        0.0,
        1.0
      ],
      "name": "Sketchfab_model"
    },
    {
      "children": [
        2
      ],
      "name": "Cup3_001.obj.cleaner.materialmerger.gles"
    },
    {
      "mesh": 0,
      "name": "Object_2"
    }
  ],
  "samplers": [
    {
      "magFilter": 9729,
      "minFilter": 9987,
      "wrapS": 10497,
      "wrapT": 10497
    }
  ],
  "scene": 0,
  "scenes": [
    {
      "name": "Sketchfab_Scene",
      "nodes": [
        0
      ]
    }
  ],
  "textures": [
    {
      "sampler": 0,
      "source": 0
    },
    {
      "sampler": 0,
      "source": 1
    },
    {
      "sampler": 0,
      "source": 2
    }
  ]
}
