{
  "accessors": [
    {
      "bufferView": 2,
      "componentType": 5126,
      "count": 1696,
      "max": [
        16.130786895751953,
        35.115203857421875,
        16.360363006591797
      ],
      "min": [
        -16.13003921508789,
        -42.122711181640625,
        -9.423741340637207
      ],
      "type": "VEC3"
    },
    {
      "bufferView": 2,
      "byteOffset": 20352,
      "componentType": 5126,
      "count": 1696,
      "max": [
        1.0,
        1.0,
        1.0
      ],
      "min": [
        -1.0,
        -1.0,
        -1.0
      ],
      "type": "VEC3"
    },
    {
      "bufferView": 3,
      "componentType": 5126,
      "count": 1696,
      "max": [
        1.0,
        1.0,
        0.9960947632789612,
        1.0
      ],
      "min": [
        -1.0,
        -1.0,
        -0.9961052536964417,
        -1.0
      ],
      "type": "VEC4"
    },
    {
      "bufferView": 1,
      "componentType": 5126,
      "count": 1696,
      "max": [
        0.9959489703178406,
        0.9956830143928528
      ],
      "min": [
        0.0009919999865815043,
        0.0009919999865815043
      ],
      "type": "VEC2"
    },
    {
      "bufferView": 0,
      "componentType": 5125,
      "count": 4692,
      "type": "SCALAR"
    }
  ],
  "asset": {
    "extras": {
      "author": "TSB3DMODELS (https://sketchfab.com/TSB3DMODELS)",
      "license": "CC-BY-4.0 (http://creativecommons.org/licenses/by/4.0/)",
      "source": "https://sketchfab.com/3d-models/carbon-motors-e7-taxi-cities-skylines-210f95a0ea374c4fbdd27849f8c3c7a0",
      "title": "CARBON MOTORS E7 TAXI (Cities Skylines)"
    },
    "generator": "Sketchfab-12.68.0",
    "version": "2.0"
  },
  "bufferViews": [
    {
      "buffer": 0,
      "byteLength": 18768,
      "name": "floatBufferViews",
      "target": 34963
    },
    {
      "buffer": 0,
      "byteLength": 13568,
      "byteOffset": 18768,
      "byteStride": 8,
      "name": "floatBufferViews",
      "target": 34962
    },
    {
      "buffer": 0,
      "byteLength": 40704,
      "byteOffset": 32336,
      "byteStride": 12,
      "name": "floatBufferViews",
      "target": 34962
    },
    {
      "buffer": 0,
      "byteLength": 27136,
      "byteOffset": 73040,
      "byteStride": 16,
      "name": "floatBufferViews",
      "target": 34962
    }
  ],
  "buffers": [
    {
      "byteLength": 100176,
      "uri": "scene.bin"
    }
  ],
  "images": [
    {
      "uri": "textures/Scene_-_Root_baseColor.png"
    },
    {
      "uri": "textures/Scene_-_Root_normal.png"
    }
  ],
  "materials": [
    {
      "name": "Scene_-_Root",
      "normalTexture": {
        "index": 1
      },
      "pbrMetallicRoughness": {
        "baseColorTexture": {
          "index": 0
        },
        "metallicFactor": 0.5,
        "roughnessFactor": 0.5328091795339525
      }
    }
  ],
  "meshes": [
    {
      "name": "e7_taxi_0__0",
      "primitives": [
        {
          "attributes": {
            "NORMAL": 1,
            "POSITION": 0,
            "TANGENT": 2,
            "TEXCOORD_0": 3
          },
          "indices": 4,
          "material": 0,
          "mode": 4
        }
      ]
    }
  ],
  "nodes": [
    {
      "children": [
        1
      ],
      "matrix": [
        1.0,
        0.0,
        0.0,
        0.0,
        0.0,
        2.220446049250313e-16,
        -1.0,
        0.0,
        0.0,
        1.0,
        2.220446049250313e-16,
        0.0,
        0.0,
        0.0,
        0.0,
        1.0
      ],
      "name": "Sketchfab_model"
    },
    {
      "children": [
        2
      ],
      "matrix": [
        1.0,
        0.0,
        0.0,
        0.0,
        0.0,
        0.0,
        1.0,
        0.0,
        0.0,
        -1.0,
        0.0,
        0.0,
        0.0,
        0.0,
        0.0,
        1.0
      ],
      "name": "29d39413a57b4910a5282e71e3f2e780.fbx"
    },
    {
      "children": [
        3
      ],
      "name": "RootNode"
    },
    {
      "children": [
        4
      ],
      "matrix": [
        1.0,
        0.0,
        0.0,
        0.0,
        0.0,
        0.999999999999999,
        4.371138828673792e-08,
        0.0,
        0.0,
        -4.371138828673792e-08,
        0.999999999999999,
        0.0,
        0.0,
        0.0,
        0.0,
        1.0
      ],
      "name": "e7_taxi_0"
    },
    {
      "children": [
        5
      ],
      "matrix": [
        7.046831130981445,
        0.0,
        0.0,
        0.0,
        0.0,
        9.383421962516171e-07,
        -7.046830177307067,
        0.0,
        -0.0,
        7.046830177307067,
        9.383421962516171e-07,
        0.0,
        -0.0017021651146933436,
        66.08977508544922,
        -35.899681091308594,
        1.0
      ],
      "name": "Object_4"
    },
    {
      "mesh": 0,
      "name": "e7_taxi_0__0"
    }
  ],
  "samplers": [
    {
      "magFilter": 9729,
      "minFilter": 9987,
      "wrapS": 10497,
      "wrapT": 10497
    }
  ],
  "scene": 0,
  "scenes": [
    {
      "name": "Sketchfab_Scene",
      "nodes": [
        0
      ]
    }
  ],
  "textures": [
    {
      "sampler": 0,
      "source": 0
    },
    {
      "sampler": 0,
      "source": 1
    }
  ]
}
